<?xml version="1.0" encoding="UTF-8"?>
<svg xmlns="http://www.w3.org/2000/svg" width="544" height="108" viewBox="0 0 544 108" fill="none">
  <g clip-path="url(#clip0_10047_332)">
    <path d="M468.05 105.87C461.86 105.87 456.11 104.14 449.42 100.27C448.85 99.94 448.28 99.62 447.71 99.29C442.44 96.29 436.99 93.18 433.85 87.75C430.67 82.26 428.93 75.25 428.93 68C428.93 60.75 430.65 53.62 433.79 48.21C437.05 42.57 442.24 37.51 448.4 33.94C453.57 30.95 459.69 31.01 465.59 31.06C466.41 31.06 467.24 31.08 468.06 31.08C475.75 31.08 481.54 32.44 486.82 35.5C492.92 39.03 497.47 43.49 500.74 49.13C503.73 54.29 505.06 60.11 505.06 68C505.06 75.21 504.79 81.65 501.52 87.31C497.56 94.15 492.93 99.14 487.77 102.12C481.79 105.58 474.47 105.87 468.06 105.87H468.05ZM463.11 34.73C458.36 34.73 453.91 35 450.23 37.13C444.62 40.38 439.91 44.96 436.97 50.05C434.16 54.91 432.61 61.28 432.61 67.99C432.61 74.7 434.18 80.96 437.04 85.89C439.69 90.47 444.7 93.32 449.54 96.08C450.12 96.41 450.7 96.74 451.27 97.07C457.37 100.6 462.55 102.18 468.06 102.18C473.98 102.18 480.74 101.93 485.92 98.93C490.51 96.27 494.69 91.74 498.32 85.46C501.15 80.58 501.37 74.9 501.37 67.99C501.37 61.08 500.19 55.54 497.55 50.97C494.62 45.9 490.51 41.88 484.98 38.69C480.29 35.97 475.07 34.76 468.06 34.76C467.22 34.76 466.39 34.76 465.56 34.74C464.74 34.74 463.93 34.72 463.12 34.72L463.11 34.73Z" fill="#FFAC00"></path>
    <path d="M468.05 100.02C463.48 100.02 459.68 97.52 456.33 95.31C455.3 94.63 454.33 94 453.36 93.43C448.04 90.35 444.59 87.11 442.17 82.93C439.76 78.77 438.74 74.31 438.74 67.99C438.74 66.86 438.69 65.68 438.65 64.55C438.48 60.28 438.3 55.86 440.48 52.08C443.2 47.38 447.44 43.13 452.12 40.42C456.35 37.98 461.42 38.01 466.31 38.05C472.5 38.09 478.54 38 483.66 40.96C487.52 43.2 493 46.76 495.96 51.88C498.58 56.41 500.14 62.43 500.14 68C500.14 72.83 497.59 76.96 495.34 80.6C494.85 81.39 494.37 82.17 493.92 82.94C490.94 88.09 486.56 91.09 482.67 93.34C481.66 93.92 480.65 94.6 479.58 95.32C476.29 97.53 472.56 100.03 468.04 100.03L468.05 100.02ZM464.51 41.72C460.57 41.72 456.89 41.91 453.97 43.61C449.89 45.97 446.04 49.82 443.67 53.92C442.02 56.77 442.17 60.48 442.33 64.4C442.38 65.57 442.43 66.79 442.43 67.99C442.43 73.61 443.31 77.53 445.37 81.09C447.48 84.74 450.42 87.47 455.22 90.25C456.28 90.86 457.34 91.56 458.37 92.24C461.57 94.35 464.6 96.34 468.07 96.34C471.54 96.34 474.43 94.36 477.56 92.26C478.63 91.54 479.74 90.8 480.86 90.15C485.84 87.27 488.71 84.64 490.76 81.1C491.22 80.3 491.72 79.49 492.23 78.67C494.32 75.29 496.48 71.79 496.48 68.01C496.48 63.06 495.1 57.73 492.79 53.74C490.27 49.39 485.33 46.19 481.83 44.17C477.54 41.69 471.97 41.79 466.3 41.75C465.7 41.75 465.11 41.75 464.52 41.75L464.51 41.72Z" fill="#FFAC00"></path>
    <path d="M468.05 90.06C463.1 90.06 455.98 89.51 451.26 84.79C446.75 80.28 446.75 73.47 446.75 68V67.1C446.74 61.17 446.73 55.04 450.91 50.86C455.16 46.61 461.66 46.02 468.05 46.02C474.44 46.02 479.96 48.06 483.98 52.07C488.74 56.84 489.36 63.09 489.36 68C489.36 73.84 489.36 80.47 484.94 84.89C480.35 89.48 473.51 90.06 468.05 90.06ZM468.05 49.7C462.45 49.7 456.82 50.16 453.52 53.46C450.42 56.56 450.43 61.67 450.44 67.09V68C450.44 74.09 450.69 79.01 453.87 82.18C456.73 85.04 461.24 86.37 468.05 86.37C474.86 86.37 479.5 85.11 482.33 82.27C485.67 78.93 485.67 73.37 485.67 67.99C485.67 61.66 484.38 57.68 481.37 54.67C478.02 51.32 473.66 49.7 468.05 49.7Z" fill="#FFAC00"></path>
    <path d="M504.79 107.56C498.03 107.56 490.8 105.62 484.96 102.24C478.61 98.57 473.18 93.36 470.05 87.96C466.6 81.99 466.13 74.47 466.13 67.9C466.13 60.96 469.35 55.42 472.46 50.05L472.81 49.44C473.36 48.49 473.89 47.52 474.43 46.55C477.13 41.63 479.93 36.54 484.99 33.61C490.97 30.15 498.34 29.86 504.79 29.86C511.24 29.86 517.34 31.63 523.63 35.27C530.04 38.98 533.83 44.53 536.69 49.48L537.52 50.91C540.51 56.02 543.6 61.3 543.6 67.9C543.6 76.67 542.28 83.03 539.46 87.92C535.69 94.44 529.19 99.11 524.41 101.87C519.93 104.46 512.89 107.55 504.79 107.55V107.56ZM504.79 33.56C498.83 33.56 492.03 33.81 486.84 36.81C482.67 39.22 480.24 43.65 477.67 48.33C477.12 49.33 476.58 50.32 476.01 51.29L475.66 51.9C472.66 57.07 469.83 61.96 469.83 67.9C469.83 73.84 470.24 80.9 473.25 86.11C476.06 90.97 481.01 95.69 486.81 99.04C492.11 102.1 498.66 103.86 504.79 103.86C510.47 103.86 516.78 102.02 522.56 98.68C526.96 96.14 532.9 91.88 536.27 86.07C538.76 81.77 539.92 75.99 539.92 67.9C539.92 62.3 537.21 57.67 534.34 52.77L533.5 51.33C530.88 46.8 527.44 41.73 521.79 38.46C516 35.11 510.6 33.55 504.8 33.55L504.79 33.56Z" fill="#389998"></path>
    <path d="M504.79 99.51C499.69 99.51 494.13 97.92 489.13 95.03C484.2 92.18 480.99 87.4 478.5 83.09C476 78.78 474.79 73.81 474.79 67.91C474.79 62.37 476.08 57.46 478.73 52.87C481.18 48.63 484.65 45.36 489.98 42.28C490.42 42.03 490.86 41.77 491.3 41.51C495.17 39.24 499.55 36.66 504.78 36.66C510.01 36.66 515.7 38.16 520.39 40.87C525.37 43.75 528.32 48.85 530.69 52.95C533.11 57.13 534.19 61.75 534.19 67.91C534.19 68.57 534.19 69.23 534.2 69.89C534.25 74.57 534.3 79.4 531.89 83.56C529.22 88.18 524.67 90.81 520.27 93.34L519.67 93.69C519.13 94 518.58 94.33 518.03 94.66C514.21 96.93 509.88 99.5 504.78 99.5L504.79 99.51ZM504.79 40.35C500.56 40.35 496.97 42.46 493.18 44.69C492.73 44.95 492.29 45.22 491.84 45.47C487.1 48.21 484.05 51.06 481.93 54.72C479.61 58.73 478.48 63.04 478.48 67.91C478.48 73.14 479.53 77.5 481.69 81.24C483.94 85.12 486.8 89.42 490.97 91.83C495.42 94.4 500.32 95.82 504.78 95.82C508.87 95.82 512.57 93.62 516.15 91.49C516.71 91.16 517.27 90.82 517.83 90.5L518.44 90.15C522.6 87.75 526.53 85.48 528.71 81.71C530.61 78.43 530.57 74.29 530.52 69.92C530.52 69.25 530.51 68.58 530.51 67.9C530.51 62.34 529.61 58.42 527.51 54.78C524.77 50.05 522.38 46.26 518.55 44.05C514.41 41.65 509.52 40.33 504.78 40.33L504.79 40.35Z" fill="#389998"></path>
    <path d="M504.79 91.77C497.94 91.77 491.24 89.33 487.31 85.39C482.83 80.91 482.83 73.7 482.83 67.91C482.83 62.12 484.92 57.03 489.41 52.53L490.41 51.52C494.09 47.79 498.67 43.15 504.79 43.15C511.54 43.15 517.46 47.66 521.25 51.44C525.16 55.35 527.23 61.04 527.23 67.9C527.23 74.76 525.25 80.85 521.5 84.6C517.02 89.08 510.78 91.76 504.8 91.76L504.79 91.77ZM504.79 46.85C500.21 46.85 496.4 50.71 493.04 54.12L492.02 55.15C488.21 58.96 486.51 62.9 486.51 67.92C486.51 72.94 486.51 79.4 489.91 82.8C493.13 86.02 498.97 88.1 504.79 88.1C509.81 88.1 515.08 85.83 518.88 82.02C522.73 78.17 523.54 72.23 523.54 67.93C523.54 63.85 522.69 58.13 518.64 54.08C515.95 51.38 510.56 46.86 504.79 46.86V46.85Z" fill="#389998"></path>
    <path d="M481.91 77.86C475.36 77.86 468.66 75.99 462.55 72.46C456.94 69.21 452.12 64.28 448.59 58.18C444.6 51.28 442.65 44.98 442.65 38.94C442.65 31.77 446.21 25.61 449.35 20.18C453.19 13.54 458.92 9.65999 463.48 7.01999C464.05 6.68999 464.61 6.35999 465.18 6.01999C470.21 3.05999 475.41 -0.0100098 481.9 -0.0100098C488.39 -0.0100098 493.66 3.06999 498.73 6.03999C499.27 6.35999 499.81 6.66999 500.35 6.97999C506.92 10.78 511.23 14.86 514.32 20.21C517.59 25.86 519.11 31.8 519.11 38.92C519.11 44.85 518.62 51.75 515 58.02C510.81 65.26 506.53 69.98 501.52 72.87C495.9 76.12 489.12 77.84 481.91 77.84V77.86ZM481.91 3.67999C476.43 3.67999 471.87 6.35999 467.06 9.19999C466.48 9.53999 465.91 9.87999 465.33 10.21C459.06 13.84 455.24 17.36 452.56 22C449.49 27.3 446.34 32.75 446.34 38.94C446.34 44.32 448.12 50.01 451.78 56.33C454.99 61.87 459.35 66.35 464.4 69.27C469.95 72.48 476.01 74.18 481.91 74.18C488.38 74.18 494.69 72.59 499.67 69.71C504.1 67.15 507.95 62.86 511.8 56.2C514.34 51.81 515.42 46.65 515.42 38.94C515.42 32.5 514.05 27.14 511.13 22.07C508.38 17.31 504.48 13.65 498.5 10.19C497.96 9.86999 497.41 9.54999 496.86 9.22999C492.01 6.37999 487.42 3.67999 481.9 3.67999H481.91Z" fill="#CC4866"></path>
    <path d="M481.91 68.29C476.5 68.29 471.98 67.07 467.25 64.33C462.46 61.56 458.28 58.88 455.54 54.16C452.65 49.16 452.26 43.66 452.26 38.93V37.55C452.23 32.63 452.21 27.54 454.71 23.23C458.2 17.2 461.8 13.16 465.72 10.89C469.25 8.84999 473.39 9.22999 477.4 9.58999C478.9 9.72999 480.46 9.86999 481.91 9.86999C486.99 9.86999 492.25 9.86999 497.08 12.66C501.71 15.34 506.47 18.36 509.24 23.15C511.73 27.46 511.71 32.57 511.69 37.51V38.93C511.69 39.93 511.71 40.95 511.74 41.97C511.87 46.47 512 51.12 509.75 55C507.58 58.75 503.73 60.65 500 62.49C498.78 63.09 497.63 63.66 496.55 64.28C491.76 67.05 487.25 68.28 481.91 68.28V68.29ZM472.66 12.99C470.75 12.99 469.01 13.24 467.56 14.08C464.22 16.01 461.06 19.61 457.9 25.07C455.9 28.53 455.92 32.9 455.94 37.53V38.93C455.94 43.16 456.28 48.07 458.73 52.31C461.01 56.25 464.77 58.64 469.09 61.14C473.23 63.54 477.18 64.6 481.91 64.6C486.64 64.6 490.45 63.55 494.7 61.09C495.88 60.41 497.15 59.78 498.37 59.18C501.75 57.51 504.95 55.94 506.56 53.15C508.29 50.17 508.18 46.23 508.06 42.07C508.03 41.02 508 39.97 508 38.93V37.49C508.03 32.83 508.05 28.44 506.05 24.99C503.73 20.98 499.44 18.28 495.23 15.84C491.54 13.7 487.56 13.54 481.91 13.54C480.29 13.54 478.65 13.39 477.06 13.25C475.54 13.11 474.06 12.98 472.66 12.98V12.99Z" fill="#CC4866"></path>
    <path d="M481.91 61.14C475.33 61.14 469.92 59.07 465.85 55C461.84 50.99 459.8 45.58 459.8 38.94C459.8 33.12 461.96 28.25 466.59 23.62C470.43 19.78 475.26 15.85 481.91 15.85C486.13 15.85 493.98 16.61 499.11 21.74C502.96 25.59 505.17 31.86 505.17 38.94C505.17 46.02 502.96 52.28 499.11 56.14C494.67 60.57 487.59 61.14 481.91 61.14ZM481.91 19.53C476.62 19.53 472.68 22.75 469.2 26.23C465.25 30.18 463.49 34.1 463.49 38.94C463.49 44.57 465.16 49.1 468.46 52.39C471.82 55.75 476.34 57.45 481.91 57.45C486.87 57.45 493.02 57 496.5 53.53C499.62 50.41 501.48 44.96 501.48 38.94C501.48 32.92 499.62 27.46 496.5 24.35C493.44 21.29 488.12 19.54 481.91 19.54V19.53Z" fill="#CC4866"></path>
    <path d="M9.71 20.86C19.63 20.86 25.2 26.11 25.2 35.45C25.2 44.79 19.63 50.04 9.71 50.04H0V20.86H9.71ZM5.98 44.88H9.63C15.9 44.88 18.97 41.77 18.97 35.45C18.97 29.13 15.9 26.02 9.63 26.02H5.98V44.87V44.88Z" fill="white"></path>
    <path d="M34.01 42.91L31.72 50.04H25.41L35.53 20.86H43.64L53.76 50.04H47.45L45.2 42.91H34.01ZM42.94 35.82C41.75 32.05 40.6 28.2 39.62 24.43H39.54C38.56 28.2 37.45 32.05 36.26 35.82L35.65 37.75H43.56L42.95 35.82H42.94Z" fill="white"></path>
    <path d="M65.73 26.03V50.05H59.7V26.03H50.52V20.87H74.91V26.03H65.73Z" fill="white"></path>
    <path d="M80.27 42.91L77.98 50.04H71.67L81.79 20.86H89.91L100.03 50.04H93.72L91.47 42.91H80.28H80.27ZM89.2 35.82C88.01 32.05 86.87 28.2 85.88 24.43H85.8C84.82 28.2 83.71 32.05 82.52 35.82L81.91 37.75H89.82L89.2 35.82Z" fill="white"></path>
    <path d="M135.87 30.99H129.81C129.44 27.59 127.19 25.54 123.78 25.54C119.35 25.54 116.65 29.31 116.65 35.46C116.65 41.61 119.31 45.38 123.66 45.38C127.1 45.38 129.36 43.37 129.81 39.81H136C135.43 46.74 130.8 50.71 123.66 50.71C115.46 50.71 110.42 44.93 110.42 35.46C110.42 25.99 115.5 20.21 123.78 20.21C130.99 20.21 135.58 24.64 135.87 30.99Z" fill="white"></path>
    <path d="M166.69 35.45C166.69 44.92 161.44 50.7 152.88 50.7C144.32 50.7 139.07 44.92 139.07 35.45C139.07 25.98 144.32 20.2 152.88 20.2C161.44 20.2 166.69 25.98 166.69 35.45ZM145.3 35.45C145.3 41.6 148.17 45.37 152.88 45.37C157.59 45.37 160.46 41.6 160.46 35.45C160.46 29.3 157.59 25.53 152.88 25.53C148.17 25.53 145.3 29.3 145.3 35.45Z" fill="white"></path>
    <path d="M199.06 50.04V35.53C199.06 31.88 199.14 28.24 199.31 24.59H199.23C198.29 28.16 197.22 31.8 196.12 35.33L191.49 50.04H184.61L179.98 35.33C178.87 31.81 177.81 28.16 176.87 24.59H176.79C176.95 28.24 177.04 31.88 177.04 35.53V50.04H171.26V20.86H180.93L185.15 34.26C186.26 37.78 187.24 41.43 188.02 45H188.1C188.88 41.43 189.86 37.79 190.97 34.26L195.19 20.86H204.86V50.04H199.08H199.06Z" fill="white"></path>
    <path d="M239.05 50.04V35.53C239.05 31.88 239.13 28.24 239.3 24.59H239.22C238.28 28.16 237.21 31.8 236.11 35.33L231.48 50.04H224.6L219.97 35.33C218.86 31.81 217.8 28.16 216.86 24.59H216.78C216.94 28.24 217.03 31.88 217.03 35.53V50.04H211.25V20.86H220.92L225.14 34.26C226.25 37.78 227.23 41.43 228.01 45H228.09C228.87 41.43 229.85 37.79 230.96 34.26L235.18 20.86H244.85V50.04H239.07H239.05Z" fill="white"></path>
    <path d="M274.16 38.9C274.16 46.6 269.98 50.7 262.56 50.7C255.14 50.7 250.96 46.6 250.96 38.9V20.86H256.98V38.69C256.98 43.03 258.95 45.37 262.55 45.37C266.15 45.37 268.12 43.03 268.12 38.69V20.86H274.15V38.89L274.16 38.9Z" fill="white"></path>
    <path d="M296.82 50.04L291.16 38.2C289.32 34.31 287.47 30.21 285.83 26.15H285.75C285.96 30.37 286.08 34.59 286.08 38.81V50.04H280.3V20.86H288.87L294.53 32.7C296.37 36.59 298.22 40.69 299.86 44.75H299.94C299.73 40.53 299.61 36.31 299.61 32.09V20.86H305.39V50.04H296.82Z" fill="white"></path>
    <path d="M311.77 50.04V20.86H317.79V50.04H311.77Z" fill="white"></path>
    <path d="M335.94 26.03V50.05H329.92V26.03H320.74V20.87H345.12V26.03H335.94Z" fill="white"></path>
    <path d="M348.07 50.04V20.86H354.1V50.04H348.07Z" fill="white"></path>
    <path d="M366.51 26.03V32.63H379.71V37.75H366.51V44.88H381.02V50.04H360.49V20.86H380.65V26.02H366.51V26.03Z" fill="white"></path>
    <path d="M405.89 29.8H399.78C399.78 26.77 398.02 25 394.7 25C392.04 25 390.23 26.31 390.23 28.2C390.23 30.45 391.99 31.19 396.58 32.34C402.07 33.69 406.82 35.13 406.82 41.48C406.82 47.01 402.23 50.7 395.43 50.7C388.18 50.7 383.63 47.09 383.63 40.45H389.86C389.86 43.97 391.79 45.82 395.52 45.82C398.59 45.82 400.56 44.39 400.56 42.09C400.56 39.51 398.67 39.02 394.54 37.95C389.05 36.56 384.05 35.25 384.05 28.85C384.05 23.73 388.43 20.2 394.83 20.2C402.12 20.2 405.89 23.52 405.89 29.79V29.8Z" fill="white"></path>
    <path d="M115.96 65.13V75.09H129.57V78.45H115.96V90.95H112.19V61.77H130.47V65.13H115.96Z" fill="white"></path>
    <path d="M159.39 76.36C159.39 85.66 154.27 91.52 146.15 91.52C138.03 91.52 132.91 85.66 132.91 76.36C132.91 67.06 138.03 61.2 146.15 61.2C154.27 61.2 159.39 67.06 159.39 76.36ZM136.85 76.36C136.85 83.53 140.42 88.08 146.15 88.08C151.88 88.08 155.45 83.53 155.45 76.36C155.45 69.19 151.84 64.64 146.15 64.64C140.46 64.64 136.85 69.19 136.85 76.36Z" fill="white"></path>
    <path d="M173.69 61.77C180.74 61.77 183.93 64.72 183.93 69.68C183.93 73.41 181.72 76.2 178.36 76.98V77.06C180.49 77.72 181.43 78.95 182.75 82.55L185.74 90.95H181.64L178.98 83.25C177.79 79.77 176.44 78.66 173.33 78.66H168.21V90.95H164.44V61.77H173.7H173.69ZM168.2 75.46H173.65C178.2 75.46 180.08 73.12 180.08 69.97C180.08 66.57 177.66 65.01 173.4 65.01H168.2V75.46Z" fill="white"></path>
    <path d="M198.84 90.95V61.77H202.61V90.95H198.84Z" fill="white"></path>
    <path d="M227.41 90.95L220.48 78.37C218.06 74.03 215.68 69.64 213.43 65.3H213.35C213.43 69.97 213.47 74.6 213.47 79.28V90.96H209.78V61.78H215.31L222.28 74.36C224.66 78.7 227.03 83.09 229.33 87.43H229.41C229.33 82.76 229.29 78.13 229.29 73.45V61.77H232.98V90.95H227.41Z" fill="white"></path>
    <path d="M262.36 71.65H258.47C258.1 67.35 255.11 64.64 250.77 64.64C245.28 64.64 241.92 69.07 241.92 76.36C241.92 83.65 245.24 88.08 250.65 88.08C254.99 88.08 258.03 85.33 258.6 80.91H262.53C261.91 87.43 257.53 91.52 250.64 91.52C242.81 91.52 237.98 85.78 237.98 76.36C237.98 66.94 242.86 61.2 250.77 61.2C257.78 61.2 262.04 65.63 262.37 71.65H262.36Z" fill="white"></path>
    <path d="M286.41 87.59V90.95H267.72V61.77H271.49V87.59H286.41Z" fill="white"></path>
    <path d="M309.72 80.01C309.72 87.55 305.87 91.53 298.9 91.53C291.93 91.53 288.08 87.55 288.08 80.01V61.77H291.85V79.93C291.85 85.38 294.47 88.09 298.9 88.09C303.33 88.09 305.91 85.39 305.91 79.93V61.77H309.72V80.01Z" fill="white"></path>
    <path d="M334.96 70.79H331.15C331.15 66.49 328.77 64.44 324.47 64.44C320.86 64.44 318.69 66.2 318.69 68.99C318.69 72.1 320.94 73.01 325.74 74.19C331.27 75.54 335.66 76.94 335.66 82.92C335.66 88.17 331.56 91.53 325.21 91.53C318.41 91.53 314.31 88.01 314.31 81.28H318.2C318.2 86.07 320.86 88.29 325.25 88.29C329.64 88.29 331.77 86.36 331.77 83.13C331.77 79.9 329.35 79.07 324.64 77.88C319.03 76.49 314.85 75.09 314.85 69.23C314.85 64.52 318.58 61.2 324.52 61.2C331.49 61.2 334.97 64.48 334.97 70.79H334.96Z" fill="white"></path>
    <path d="M340.94 90.95V61.77H344.71V90.95H340.94Z" fill="white"></path>
    <path d="M376.22 76.36C376.22 85.66 371.1 91.52 362.98 91.52C354.86 91.52 349.74 85.66 349.74 76.36C349.74 67.06 354.86 61.2 362.98 61.2C371.1 61.2 376.22 67.06 376.22 76.36ZM353.68 76.36C353.68 83.53 357.25 88.08 362.98 88.08C368.71 88.08 372.28 83.53 372.28 76.36C372.28 69.19 368.67 64.64 362.98 64.64C357.29 64.64 353.68 69.19 353.68 76.36Z" fill="white"></path>
    <path d="M398.88 90.95L391.95 78.37C389.53 74.03 387.15 69.64 384.9 65.3H384.82C384.9 69.97 384.94 74.6 384.94 79.28V90.96H381.25V61.78H386.78L393.75 74.36C396.13 78.7 398.5 83.09 400.8 87.43H400.88C400.8 82.76 400.76 78.13 400.76 73.45V61.77H404.45V90.95H398.88Z" fill="white"></path>
  </g>
  <defs>
    <clipPath id="clip0_10047_332">
      <rect width="543.6" height="107.56" fill="white"></rect>
    </clipPath>
  </defs>
</svg>
