<svg
        xmlns="http://www.w3.org/2000/svg"
        width="120"
        height="369.60"
        viewBox="0 0 120 370">
    <style>
        text {
          font-family: Arial, Helvetica, sans-serif;
          font-size: 16px;
          font-weight: 600;
          fill: black;
        }
    </style>
    <defs>
        <marker
                id="arrowhead"
                viewBox="0 0 10 10"
                refX="9"
                refY="5"
                markerUnits="strokeWidth"
                markerWidth="8"
                markerHeight="6"
                orient="auto">
            <path d="M0 0 L10 5 L0 10 Z" fill="gray"/>
        </marker>
    </defs>

    <g class="output" transform="translate(1 1)">
        <g class="clusters"/>

        <g class="edgePaths">
            <g class="edgePath" style="opacity:1">
                <path
                        d="M75.85 48.39 L80.01 53.56 C84.17 58.73 92.48 69.06 96.64 78.40 C100.80 87.73 100.80 96.07 100.80 100.23 L100.80 104.40"
                        marker-end="url(#arrowhead)"
                        style="stroke:gray;fill:none;stroke-width:1"/>
            </g>

            <g class="edgePath" style="opacity:1">
                <path
                        d="M41.75 48.39 L37.59 53.56 C33.43 58.73 25.12 69.06 20.96 78.40 C16.80 87.73 16.80 96.07 16.80 100.23 L16.80 104.40"
                        marker-end="url(#arrowhead)"
                        style="stroke:gray;fill:none;stroke-width:1"/>
            </g>

            <g class="edgePath" style="opacity:1">
                <path
                        d="M100.80 158.80 L100.80 162.97 C100.80 167.13 100.80 175.47 100.80 183.80 C100.80 192.13 100.80 200.47 100.80 204.63 L100.80 208.80"
                        marker-end="url(#arrowhead)"
                        style="stroke:gray;fill:none;stroke-width:1"/>
            </g>

            <g class="edgePath" style="opacity:1">
                <path
                        d="M16.80 158.80 L16.80 162.97 C16.80 167.13 16.80 175.47 16.80 183.80 C16.80 192.13 16.80 200.47 16.80 204.63 L16.80 208.80"
                        marker-end="url(#arrowhead)"
                        style="stroke:gray;fill:none;stroke-width:1"/>
            </g>

            <g class="edgePath" style="opacity:1">
                <path
                        d="M16.80 263.20 L16.80 267.37 C16.80 271.53 16.80 279.87 21.13 289.42 C25.47 298.97 34.13 309.74 38.47 315.13 L42.80 320.51"
                        marker-end="url(#arrowhead)"
                        style="stroke:gray;fill:none;stroke-width:1"/>
            </g>

            <g class="edgePath" style="opacity:1">
                <path
                        d="M100.80 263.20 L100.80 267.37 C100.80 271.53 100.80 279.87 96.47 289.42 C92.13 298.97 83.47 309.74 79.13 315.13 L74.80 320.51"
                        marker-end="url(#arrowhead)"
                        style="stroke:gray;fill:none;stroke-width:1"/>
            </g>
        </g>

        <g class="nodes">
            <g class="node" transform="translate(58.80 27.20)">
                <circle r="27.20" class="label-container"
                        style="fill:#ECECFF;stroke:black;stroke-width:1"/>
                <text x="-5.80" y="6">A</text>
            </g>

            <g class="node" transform="translate(100.80 131.60)">
                <rect x="-17.20" y="-27.20" width="34.40" height="54.40"
                      style="fill:#f99;stroke:black;stroke-width:1"/>
                <text x="-5.80" y="6">B</text>
            </g>

            <g class="node" transform="translate(16.80 131.60)">
                <rect x="-16.80" y="-27.20" width="33.60" height="54.40"
                      style="fill:#ECECFF;stroke:black;stroke-width:1"/>
                <text x="-5.80" y="6">C</text>
            </g>

            <g class="node" transform="translate(100.80 236.00)">
                <rect x="-17.20" y="-27.20" width="34.40" height="54.40"
                      style="fill:#afa;stroke:black;stroke-width:1"/>
                <text x="-5.80" y="6">D</text>
            </g>

            <g class="node" transform="translate(16.80 236.00)">
                <rect x="-16.40" y="-27.20" width="32.80" height="54.40"
                      style="fill:#f99;stroke:black;stroke-width:1"/>
                <text x="-5.80" y="6">E</text>
            </g>

            <g class="node" transform="translate(58.80 340.40)">
                <rect x="-16.00" y="-27.20" width="32.00" height="54.40"
                      style="fill:#afa;stroke:black;stroke-width:1"/>
                <text x="-5.80" y="6">F</text>
            </g>
        </g>
    </g>
</svg>
